# xmcd
#
# Track frame offsets:
#	150
#	18039
#	31052
#	51582
#	74229
#	92743
#	109451
#	124315
#	141920
#	160438
#
# Disc length: 2292 seconds
#
# Revision: 1
# Processed by: cddbd v1.5.2PL0 Copyright (c) Steve Scherf et al.
# Submitted via: audiograbber 1.83.01
#
DISCID=9508f20a
DTITLE=Compilation - xmas lounge
DYEAR=2008
DGENRE=X mas
TTITLE0=Driving Home for Christmas, Chris Rea
TTITLE1=Rudolph, the red nosed raindeer, Ella Fitzgerald
TTITLE2=Have yourself a merry little christmas, Vanessa Williams
TTITLE3=Bleib doch bis es schneit, Zweiraumwohnung
TTITLE4=This Gift, 98
TTITLE5=Do they know it's christmas, Band Aid
TTITLE6=Cold cold christmas, Dana
TTITLE7=Christmas wonder, Mungo Jerry
TTITLE8=Christmas Time, Bryan Adams
TTITLE9=Silent night, Boyz II Men
EXTD=
EXTT0=
EXTT1=
EXTT2=
EXTT3=
EXTT4=
EXTT5=
EXTT6=
EXTT7=
EXTT8=
EXTT9=
PLAYORDER=
